<?xml version="1.0" encoding="utf-8"?>
<!-- Generator: Adobe Illustrator 16.2.0, SVG Export Plug-In . SVG Version: 6.00 Build 0)  -->
<!DOCTYPE svg PUBLIC "-//W3C//DTD SVG 1.1//EN" "http://www.w3.org/Graphics/SVG/1.1/DTD/svg11.dtd">
<svg version="1.1" id="Layer_1" xmlns="http://www.w3.org/2000/svg" xmlns:xlink="http://www.w3.org/1999/xlink" x="0px" y="0px"
	 width="370.211px" height="100px" viewBox="0 0 370.211 100" enable-background="new 0 0 370.211 100" xml:space="preserve">
<path fill="#FEE700" d="M100,50c0,27.614-22.386,50-50,50l0,0C22.386,100,0,77.614,0,50l0,0C0,22.386,22.386,0,50,0l0,0
	C77.614,0,100,22.386,100,50L100,50z"/>
<path fill="#FEE700" d="M235.105,50c0,27.614-22.386,50-50,50l0,0c-27.614,0-50-22.386-50-50l0,0c0-27.614,22.386-50,50-50l0,0
	C212.72,0,235.105,22.386,235.105,50L235.105,50z"/>
<path fill="#FEE700" d="M370.211,50c0,27.614-22.386,50-50,50l0,0c-27.614,0-50-22.386-50-50l0,0c0-27.614,22.386-50,50-50l0,0
	C347.825,0,370.211,22.386,370.211,50L370.211,50z"/>
</svg>
