<?xml version="1.0" encoding="utf-8"?>
<!-- Generator: Adobe Illustrator 16.2.0, SVG Export Plug-In . SVG Version: 6.00 Build 0)  -->
<!DOCTYPE svg PUBLIC "-//W3C//DTD SVG 1.1//EN" "http://www.w3.org/Graphics/SVG/1.1/DTD/svg11.dtd">
<svg version="1.1" id="Layer_1" xmlns="http://www.w3.org/2000/svg" xmlns:xlink="http://www.w3.org/1999/xlink" x="0px" y="0px"
	 width="439px" height="146.5px" viewBox="0 0 439 146.5" enable-background="new 0 0 439 146.5" xml:space="preserve">
<g id="Layer_2">
</g>
<g id="ucla-box-black">
	<g>
		<path fill="#FFFFFF" d="M5.342,102.202c-0.387-4.813-0.489-9.644-0.306-14.468l6.902-78.2h25.619l-7.021,78.881
			c-1.513,17,5.1,29.271,22.236,29.271c17.442,0,26.656-12.395,28.169-27.559l7.276-80.646h25.602l-7.089,79.712
			c-2.856,30.602-23.188,53.619-56.1,53.619c-25.636,0-42.16-16.576-45.305-40.545"/>
		<path fill="#FFFFFF" d="M119.701,75.716c3.4-37.57,28.679-68.714,72.454-68.714c11.934-0.169,23.646,3.224,33.643,9.741
			l-2.924,31.023c-10.098-13.275-22.103-15.438-33.167-15.438c-27.2,0-42.178,18.922-44.319,42.875
			c-2.058,23.311,9.979,42.279,36.362,42.279c11.527,0,23.801-3.4,36.517-16.102l-2.822,31.842
			c-12.458,6.799-24.038,9.826-35.7,9.826C136.429,143.055,116.59,110.872,119.701,75.716"/>
		<path fill="#FFFFFF" d="M246.249,9.483h25.5l-9.315,106.25h36.601c2.584,0,11.309-0.135,13.604-0.271
			c-0.136,1.275-2.329,24.549-2.329,24.549h-75.649L246.249,9.483z"/>
		<path fill="#FFFFFF" d="M379.342,58.206c0.801-1.762,1.434-3.594,1.887-5.476h0.408c0.155,1.866,0.479,3.718,0.97,5.524
			c1.41,5.949,11.355,38.999,11.355,38.999h-32.3c0,0,17.285-38.183,17.629-39.101 M385.836,3.449h-1.7l-69.955,136.478h27.2
			l9.792-20.62h49.3l6.154,20.704h27.081L385.836,3.449z"/>
	</g>
</g>
</svg>
